<mxfile host="app.diagrams.net" agent="Mozilla/5.0 (Windows NT 10.0; Win64; x64) AppleWebKit/537.36 (KHTML, like Gecko) Chrome/137.0.0.0 Safari/537.36" version="26.2.14">
  <diagram name="Page-1" id="2t6RAkEXw6tURz-xVzC8">
    <mxGraphModel dx="969" dy="479" grid="1" gridSize="10" guides="1" tooltips="1" connect="1" arrows="1" fold="1" page="1" pageScale="1" pageWidth="850" pageHeight="1100" math="0" shadow="0">
      <root>
        <mxCell id="0" />
        <mxCell id="1" parent="0" />
        <mxCell id="vlM3vvVPuQ_DbB2GBHVn-4" style="edgeStyle=orthogonalEdgeStyle;rounded=0;orthogonalLoop=1;jettySize=auto;html=1;exitX=0.5;exitY=1;exitDx=0;exitDy=0;exitPerimeter=0;entryX=0.5;entryY=0;entryDx=0;entryDy=0;" edge="1" parent="1" source="vlM3vvVPuQ_DbB2GBHVn-2" target="vlM3vvVPuQ_DbB2GBHVn-3">
          <mxGeometry relative="1" as="geometry" />
        </mxCell>
        <mxCell id="vlM3vvVPuQ_DbB2GBHVn-2" value="Mulai" style="strokeWidth=2;html=1;shape=mxgraph.flowchart.start_1;whiteSpace=wrap;fillColor=#dae8fc;strokeColor=#6c8ebf;" vertex="1" parent="1">
          <mxGeometry x="120" y="150" width="100" height="60" as="geometry" />
        </mxCell>
        <mxCell id="vlM3vvVPuQ_DbB2GBHVn-6" style="edgeStyle=orthogonalEdgeStyle;rounded=0;orthogonalLoop=1;jettySize=auto;html=1;exitX=0.5;exitY=1;exitDx=0;exitDy=0;entryX=0.5;entryY=0;entryDx=0;entryDy=0;" edge="1" parent="1" source="vlM3vvVPuQ_DbB2GBHVn-3" target="vlM3vvVPuQ_DbB2GBHVn-5">
          <mxGeometry relative="1" as="geometry" />
        </mxCell>
        <mxCell id="vlM3vvVPuQ_DbB2GBHVn-3" value="Inisialisasi &lt;i&gt;processes&lt;/i&gt;, &lt;i&gt;allocation&lt;/i&gt;, &lt;i&gt;maximum&lt;/i&gt;, &lt;i&gt;available&lt;/i&gt;" style="rounded=1;whiteSpace=wrap;html=1;absoluteArcSize=1;arcSize=14;strokeWidth=2;fillColor=#f8cecc;strokeColor=#b85450;" vertex="1" parent="1">
          <mxGeometry x="120" y="240" width="100" height="80" as="geometry" />
        </mxCell>
        <mxCell id="vlM3vvVPuQ_DbB2GBHVn-8" style="edgeStyle=orthogonalEdgeStyle;rounded=0;orthogonalLoop=1;jettySize=auto;html=1;exitX=0.5;exitY=1;exitDx=0;exitDy=0;entryX=0.5;entryY=0;entryDx=0;entryDy=0;" edge="1" parent="1" source="vlM3vvVPuQ_DbB2GBHVn-5" target="vlM3vvVPuQ_DbB2GBHVn-7">
          <mxGeometry relative="1" as="geometry" />
        </mxCell>
        <mxCell id="vlM3vvVPuQ_DbB2GBHVn-5" value="Menghitung matriks&amp;nbsp;&lt;i&gt;need &lt;/i&gt;(fungsi&amp;nbsp;&lt;div&gt;&lt;i&gt;calculate_need&lt;/i&gt;)&lt;/div&gt;" style="rounded=1;whiteSpace=wrap;html=1;absoluteArcSize=1;arcSize=14;strokeWidth=2;fillColor=#f8cecc;strokeColor=#b85450;" vertex="1" parent="1">
          <mxGeometry x="120" y="350" width="100" height="80" as="geometry" />
        </mxCell>
        <mxCell id="vlM3vvVPuQ_DbB2GBHVn-10" style="edgeStyle=orthogonalEdgeStyle;rounded=0;orthogonalLoop=1;jettySize=auto;html=1;exitX=0.5;exitY=1;exitDx=0;exitDy=0;entryX=0.5;entryY=0;entryDx=0;entryDy=0;" edge="1" parent="1" source="vlM3vvVPuQ_DbB2GBHVn-7" target="vlM3vvVPuQ_DbB2GBHVn-9">
          <mxGeometry relative="1" as="geometry" />
        </mxCell>
        <mxCell id="vlM3vvVPuQ_DbB2GBHVn-7" value="&lt;div&gt;Menampilkan grafik allocation vs need (&lt;span style=&quot;background-color: transparent; color: light-dark(rgb(0, 0, 0), rgb(255, 255, 255));&quot;&gt;fungsi &lt;/span&gt;&lt;i style=&quot;background-color: transparent; color: light-dark(rgb(0, 0, 0), rgb(255, 255, 255));&quot;&gt;visualize_allocation&lt;/i&gt;&lt;/div&gt;&lt;div&gt;&lt;i&gt;_and_need&lt;/i&gt;)&lt;/div&gt;" style="rounded=1;whiteSpace=wrap;html=1;absoluteArcSize=1;arcSize=14;strokeWidth=2;fillColor=#f8cecc;strokeColor=#b85450;" vertex="1" parent="1">
          <mxGeometry x="115" y="460" width="110" height="100" as="geometry" />
        </mxCell>
        <mxCell id="vlM3vvVPuQ_DbB2GBHVn-9" value="Mulai Bankerâ€™s Algorithm untuk mengecek safe state dan urutan eksekusi (fungsi&amp;nbsp;&lt;div&gt;&lt;i&gt;is_safe_state&lt;/i&gt;)&lt;/div&gt;" style="rounded=1;whiteSpace=wrap;html=1;absoluteArcSize=1;arcSize=14;strokeWidth=2;fillColor=#f8cecc;strokeColor=#b85450;" vertex="1" parent="1">
          <mxGeometry x="290" y="180" width="110" height="100" as="geometry" />
        </mxCell>
        <mxCell id="vlM3vvVPuQ_DbB2GBHVn-14" style="edgeStyle=orthogonalEdgeStyle;rounded=0;orthogonalLoop=1;jettySize=auto;html=1;exitX=0.5;exitY=1;exitDx=0;exitDy=0;exitPerimeter=0;" edge="1" parent="1" source="vlM3vvVPuQ_DbB2GBHVn-11" target="vlM3vvVPuQ_DbB2GBHVn-13">
          <mxGeometry relative="1" as="geometry" />
        </mxCell>
        <mxCell id="vlM3vvVPuQ_DbB2GBHVn-17" value="Ya" style="edgeLabel;html=1;align=center;verticalAlign=middle;resizable=0;points=[];" vertex="1" connectable="0" parent="vlM3vvVPuQ_DbB2GBHVn-14">
          <mxGeometry x="-0.1362" relative="1" as="geometry">
            <mxPoint as="offset" />
          </mxGeometry>
        </mxCell>
        <mxCell id="vlM3vvVPuQ_DbB2GBHVn-18" value="" style="edgeStyle=orthogonalEdgeStyle;rounded=0;orthogonalLoop=1;jettySize=auto;html=1;entryX=0.5;entryY=0;entryDx=0;entryDy=0;" edge="1" parent="1" source="vlM3vvVPuQ_DbB2GBHVn-11" target="vlM3vvVPuQ_DbB2GBHVn-15">
          <mxGeometry relative="1" as="geometry">
            <Array as="points">
              <mxPoint x="420" y="365" />
              <mxPoint x="420" y="160" />
              <mxPoint x="505" y="160" />
            </Array>
          </mxGeometry>
        </mxCell>
        <mxCell id="vlM3vvVPuQ_DbB2GBHVn-19" value="Tidak" style="edgeLabel;html=1;align=center;verticalAlign=middle;resizable=0;points=[];" vertex="1" connectable="0" parent="vlM3vvVPuQ_DbB2GBHVn-18">
          <mxGeometry x="-0.7984" y="1" relative="1" as="geometry">
            <mxPoint x="1" as="offset" />
          </mxGeometry>
        </mxCell>
        <mxCell id="vlM3vvVPuQ_DbB2GBHVn-11" value="Semua proses&amp;nbsp;&lt;div&gt;bisa selesai?&lt;/div&gt;" style="strokeWidth=2;html=1;shape=mxgraph.flowchart.decision;whiteSpace=wrap;fillColor=#fff2cc;strokeColor=#d6b656;" vertex="1" parent="1">
          <mxGeometry x="292.5" y="310" width="105" height="110" as="geometry" />
        </mxCell>
        <mxCell id="vlM3vvVPuQ_DbB2GBHVn-12" style="edgeStyle=orthogonalEdgeStyle;rounded=0;orthogonalLoop=1;jettySize=auto;html=1;exitX=0.5;exitY=1;exitDx=0;exitDy=0;entryX=0.5;entryY=0;entryDx=0;entryDy=0;entryPerimeter=0;" edge="1" parent="1" source="vlM3vvVPuQ_DbB2GBHVn-9" target="vlM3vvVPuQ_DbB2GBHVn-11">
          <mxGeometry relative="1" as="geometry" />
        </mxCell>
        <mxCell id="vlM3vvVPuQ_DbB2GBHVn-13" value="&lt;div&gt;Print &quot;Sistem&amp;nbsp;&lt;/div&gt;&lt;div&gt;dalam keadaan&amp;nbsp;&lt;/div&gt;&lt;div&gt;AMAN&quot;&amp;nbsp;&lt;span style=&quot;background-color: transparent; color: light-dark(rgb(0, 0, 0), rgb(255, 255, 255));&quot;&gt;dan&amp;nbsp;&lt;/span&gt;&lt;/div&gt;&lt;div&gt;&lt;span style=&quot;background-color: transparent; color: light-dark(rgb(0, 0, 0), rgb(255, 255, 255));&quot;&gt;m&lt;/span&gt;&lt;span style=&quot;background-color: transparent; color: light-dark(rgb(0, 0, 0), rgb(255, 255, 255));&quot;&gt;enampilkan&amp;nbsp;&lt;/span&gt;&lt;/div&gt;&lt;div&gt;&lt;span style=&quot;background-color: transparent; color: light-dark(rgb(0, 0, 0), rgb(255, 255, 255));&quot;&gt;urutan eksekusi&amp;nbsp;&lt;/span&gt;&lt;/div&gt;&lt;div&gt;&lt;span style=&quot;background-color: transparent; color: light-dark(rgb(0, 0, 0), rgb(255, 255, 255));&quot;&gt;yang mungkin (&lt;i&gt;safe_sequence&lt;/i&gt;)&lt;/span&gt;&lt;/div&gt;" style="shape=parallelogram;html=1;strokeWidth=2;perimeter=parallelogramPerimeter;whiteSpace=wrap;rounded=1;arcSize=12;size=0.23;fillColor=#d5e8d4;strokeColor=#82b366;" vertex="1" parent="1">
          <mxGeometry x="270" y="470" width="150" height="110" as="geometry" />
        </mxCell>
        <mxCell id="vlM3vvVPuQ_DbB2GBHVn-21" value="" style="edgeStyle=orthogonalEdgeStyle;rounded=0;orthogonalLoop=1;jettySize=auto;html=1;" edge="1" parent="1" source="vlM3vvVPuQ_DbB2GBHVn-15" target="vlM3vvVPuQ_DbB2GBHVn-20">
          <mxGeometry relative="1" as="geometry" />
        </mxCell>
        <mxCell id="vlM3vvVPuQ_DbB2GBHVn-15" value="&lt;div&gt;Print &quot;Sistem&amp;nbsp;&lt;/div&gt;&lt;div&gt;TIDAK AMAN!&quot;&lt;/div&gt;" style="shape=parallelogram;html=1;strokeWidth=2;perimeter=parallelogramPerimeter;whiteSpace=wrap;rounded=1;arcSize=12;size=0.23;fillColor=#d5e8d4;strokeColor=#82b366;" vertex="1" parent="1">
          <mxGeometry x="440" y="180" width="130" height="60" as="geometry" />
        </mxCell>
        <mxCell id="vlM3vvVPuQ_DbB2GBHVn-20" value="Mengidentifikasi potensi deadlock dengan Wait-For Graph (fungsi &lt;i&gt;visualize_wait_&lt;/i&gt;&lt;div&gt;&lt;i&gt;for_graph&lt;/i&gt;)&lt;/div&gt;" style="rounded=1;whiteSpace=wrap;html=1;absoluteArcSize=1;arcSize=14;strokeWidth=2;fillColor=#f8cecc;strokeColor=#b85450;" vertex="1" parent="1">
          <mxGeometry x="450" y="260" width="110" height="100" as="geometry" />
        </mxCell>
        <mxCell id="vlM3vvVPuQ_DbB2GBHVn-26" value="" style="edgeStyle=orthogonalEdgeStyle;rounded=0;orthogonalLoop=1;jettySize=auto;html=1;" edge="1" parent="1" source="vlM3vvVPuQ_DbB2GBHVn-22" target="vlM3vvVPuQ_DbB2GBHVn-25">
          <mxGeometry relative="1" as="geometry" />
        </mxCell>
        <mxCell id="vlM3vvVPuQ_DbB2GBHVn-27" value="Tidak" style="edgeLabel;html=1;align=center;verticalAlign=middle;resizable=0;points=[];" vertex="1" connectable="0" parent="vlM3vvVPuQ_DbB2GBHVn-26">
          <mxGeometry x="-0.6057" y="2" relative="1" as="geometry">
            <mxPoint x="-2" y="2" as="offset" />
          </mxGeometry>
        </mxCell>
        <mxCell id="vlM3vvVPuQ_DbB2GBHVn-29" style="edgeStyle=orthogonalEdgeStyle;rounded=0;orthogonalLoop=1;jettySize=auto;html=1;exitX=1;exitY=0.5;exitDx=0;exitDy=0;exitPerimeter=0;entryX=0.5;entryY=0;entryDx=0;entryDy=0;" edge="1" parent="1">
          <mxGeometry relative="1" as="geometry">
            <mxPoint x="556.5" y="433" as="sourcePoint" />
            <mxPoint x="664" y="180" as="targetPoint" />
            <Array as="points">
              <mxPoint x="577" y="433" />
              <mxPoint x="577" y="160" />
              <mxPoint x="664" y="160" />
            </Array>
          </mxGeometry>
        </mxCell>
        <mxCell id="vlM3vvVPuQ_DbB2GBHVn-30" value="Ya" style="edgeLabel;html=1;align=center;verticalAlign=middle;resizable=0;points=[];" vertex="1" connectable="0" parent="vlM3vvVPuQ_DbB2GBHVn-29">
          <mxGeometry x="-0.7975" y="1" relative="1" as="geometry">
            <mxPoint as="offset" />
          </mxGeometry>
        </mxCell>
        <mxCell id="vlM3vvVPuQ_DbB2GBHVn-22" value="Apakah&amp;nbsp;&lt;div&gt;ada&lt;span style=&quot;background-color: transparent; color: light-dark(rgb(0, 0, 0), rgb(255, 255, 255));&quot;&gt;&amp;nbsp;siklus/&lt;/span&gt;&lt;div&gt;&lt;span style=&quot;background-color: transparent; color: light-dark(rgb(0, 0, 0), rgb(255, 255, 255));&quot;&gt;deadlock?&lt;/span&gt;&lt;/div&gt;&lt;/div&gt;" style="strokeWidth=2;html=1;shape=mxgraph.flowchart.decision;whiteSpace=wrap;fillColor=#fff2cc;strokeColor=#d6b656;" vertex="1" parent="1">
          <mxGeometry x="452.5" y="380" width="105" height="97" as="geometry" />
        </mxCell>
        <mxCell id="vlM3vvVPuQ_DbB2GBHVn-24" style="edgeStyle=orthogonalEdgeStyle;rounded=0;orthogonalLoop=1;jettySize=auto;html=1;exitX=0.5;exitY=1;exitDx=0;exitDy=0;entryX=0.5;entryY=0;entryDx=0;entryDy=0;entryPerimeter=0;" edge="1" parent="1" source="vlM3vvVPuQ_DbB2GBHVn-20" target="vlM3vvVPuQ_DbB2GBHVn-22">
          <mxGeometry relative="1" as="geometry" />
        </mxCell>
        <mxCell id="vlM3vvVPuQ_DbB2GBHVn-25" value="Print &quot;Tidak&amp;nbsp;&lt;div&gt;ada&amp;nbsp;&lt;span style=&quot;background-color: transparent; color: light-dark(rgb(0, 0, 0), rgb(255, 255, 255));&quot;&gt;deadlock&amp;nbsp;&lt;/span&gt;&lt;/div&gt;&lt;div&gt;&lt;span style=&quot;background-color: transparent; color: light-dark(rgb(0, 0, 0), rgb(255, 255, 255));&quot;&gt;yang&amp;nbsp;&lt;/span&gt;&lt;span style=&quot;background-color: transparent; color: light-dark(rgb(0, 0, 0), rgb(255, 255, 255));&quot;&gt;terdeteksi&quot;&amp;nbsp;&lt;/span&gt;&lt;span style=&quot;background-color: transparent; color: light-dark(rgb(0, 0, 0), rgb(255, 255, 255));&quot;&gt;dan&amp;nbsp;&lt;/span&gt;&lt;/div&gt;&lt;div&gt;&lt;span style=&quot;background-color: transparent; color: light-dark(rgb(0, 0, 0), rgb(255, 255, 255));&quot;&gt;Wait-For Graph&amp;nbsp;&lt;/span&gt;&lt;/div&gt;&lt;div&gt;&lt;span style=&quot;background-color: transparent; color: light-dark(rgb(0, 0, 0), rgb(255, 255, 255));&quot;&gt;tanpa siklus&lt;/span&gt;&lt;/div&gt;" style="shape=parallelogram;html=1;strokeWidth=2;perimeter=parallelogramPerimeter;whiteSpace=wrap;rounded=1;arcSize=12;size=0.23;fillColor=#d5e8d4;strokeColor=#82b366;" vertex="1" parent="1">
          <mxGeometry x="430" y="510" width="150" height="70" as="geometry" />
        </mxCell>
        <mxCell id="vlM3vvVPuQ_DbB2GBHVn-32" style="edgeStyle=orthogonalEdgeStyle;rounded=0;orthogonalLoop=1;jettySize=auto;html=1;exitX=0.5;exitY=1;exitDx=0;exitDy=0;entryX=0.5;entryY=0;entryDx=0;entryDy=0;" edge="1" parent="1" source="vlM3vvVPuQ_DbB2GBHVn-28" target="vlM3vvVPuQ_DbB2GBHVn-31">
          <mxGeometry relative="1" as="geometry">
            <mxPoint x="665.1538461538462" y="310" as="targetPoint" />
          </mxGeometry>
        </mxCell>
        <mxCell id="vlM3vvVPuQ_DbB2GBHVn-28" value="Menampilkan&amp;nbsp;&lt;div&gt;&quot;Deadlock&amp;nbsp;&lt;/div&gt;&lt;div&gt;terdeteksi&lt;/div&gt;&lt;div&gt;&amp;nbsp;pada siklus:&quot;&amp;nbsp;&lt;/div&gt;&lt;div&gt;dan Wait-For Graph&amp;nbsp;&lt;/div&gt;&lt;div&gt;yang memiliki&amp;nbsp;&lt;/div&gt;&lt;div&gt;siklus&lt;/div&gt;" style="shape=parallelogram;html=1;strokeWidth=2;perimeter=parallelogramPerimeter;whiteSpace=wrap;rounded=1;arcSize=12;size=0.23;fillColor=#d5e8d4;strokeColor=#82b366;" vertex="1" parent="1">
          <mxGeometry x="590" y="180" width="150" height="110" as="geometry" />
        </mxCell>
        <mxCell id="vlM3vvVPuQ_DbB2GBHVn-31" value="Menjalankan fungsi &lt;i&gt;deadlock_recovery&lt;/i&gt; dengan mengembalikan resource salah satu proses" style="rounded=1;whiteSpace=wrap;html=1;absoluteArcSize=1;arcSize=14;strokeWidth=2;fillColor=#f8cecc;strokeColor=#b85450;" vertex="1" parent="1">
          <mxGeometry x="600" y="315" width="130" height="100" as="geometry" />
        </mxCell>
        <mxCell id="vlM3vvVPuQ_DbB2GBHVn-34" value="Selesai" style="strokeWidth=2;html=1;shape=mxgraph.flowchart.start_1;whiteSpace=wrap;fillColor=#dae8fc;strokeColor=#6c8ebf;" vertex="1" parent="1">
          <mxGeometry x="615" y="440" width="100" height="60" as="geometry" />
        </mxCell>
        <mxCell id="vlM3vvVPuQ_DbB2GBHVn-35" style="edgeStyle=orthogonalEdgeStyle;rounded=0;orthogonalLoop=1;jettySize=auto;html=1;exitX=0.5;exitY=1;exitDx=0;exitDy=0;entryX=0.5;entryY=0;entryDx=0;entryDy=0;entryPerimeter=0;" edge="1" parent="1" source="vlM3vvVPuQ_DbB2GBHVn-31" target="vlM3vvVPuQ_DbB2GBHVn-34">
          <mxGeometry relative="1" as="geometry" />
        </mxCell>
        <mxCell id="vlM3vvVPuQ_DbB2GBHVn-36" style="edgeStyle=orthogonalEdgeStyle;rounded=0;orthogonalLoop=1;jettySize=auto;html=1;exitX=1;exitY=0.5;exitDx=0;exitDy=0;entryX=0.363;entryY=1.003;entryDx=0;entryDy=0;entryPerimeter=0;" edge="1" parent="1" source="vlM3vvVPuQ_DbB2GBHVn-25" target="vlM3vvVPuQ_DbB2GBHVn-34">
          <mxGeometry relative="1" as="geometry" />
        </mxCell>
        <mxCell id="vlM3vvVPuQ_DbB2GBHVn-37" style="edgeStyle=orthogonalEdgeStyle;rounded=0;orthogonalLoop=1;jettySize=auto;html=1;exitX=0.5;exitY=1;exitDx=0;exitDy=0;entryX=0.605;entryY=1.003;entryDx=0;entryDy=0;entryPerimeter=0;" edge="1" parent="1" source="vlM3vvVPuQ_DbB2GBHVn-13" target="vlM3vvVPuQ_DbB2GBHVn-34">
          <mxGeometry relative="1" as="geometry" />
        </mxCell>
      </root>
    </mxGraphModel>
  </diagram>
</mxfile>
